# xmcd CD database file
#
# Track frame offsets:
#	150
#	48543
#	63155
#	81733
#	98198
#	111693
#	128843
#	154458
#
# Disc length: 2393 seconds
#
# Revision: 2
# Processed by: cddbd v1.5.1PL0 Copyright (c) Steve Scherf et al.
# Submitted via: CDex 1.51
#
DISCID=76095708
DTITLE=Millie Jackson - Feelin' Bitchy
DYEAR=1977
DGENRE=Blues
TTITLE0=All The Way Lover
TTITLE1=Lovin' Your Good Thing Away
TTITLE2=Angel In Your Arms
TTITLE3=A Little Taste Of Outside Love
TTITLE4=You Created A Monster
TTITLE5=Cheatin' Is
TTITLE6=If You Are Not Back In Love By Monday
TTITLE7=Feelin' Like A Woman
EXTD=YEAR: 1977
EXTT0=
EXTT1=
EXTT2=
EXTT3=
EXTT4=
EXTT5=
EXTT6=
EXTT7=
PLAYORDER=
